<?xml version="1.0" encoding="UTF-8"?>
<svg width="835" height="205" viewBox="0 0 835 205" 
     xmlns="http://www.w3.org/2000/svg" font-family="-apple-system, BlinkMacSystemFont, 'Segoe UI', Helvetica, Arial, sans-serif">
  
  <!-- Background -->
  <rect width="835" height="205" fill="#0d1117" rx="6" ry="6"/>
  
  <!-- Title -->
  <text x="20" y="25" fill="#e6edf3" font-size="16" font-weight="600">
    Codex Activity
  </text>
  <text x="20" y="45" fill="#8b949e" font-size="12">
    zongrui's token usage over the past 365 days
  </text>
  
  <!-- Day labels -->
  <text x="15" y="70" fill="#8b949e" font-size="10" text-anchor="end">Sun</text>
  <text x="15" y="100" fill="#8b949e" font-size="10" text-anchor="end">Tue</text>
  <text x="15" y="130" fill="#8b949e" font-size="10" text-anchor="end">Thu</text>
  <text x="15" y="160" fill="#8b949e" font-size="10" text-anchor="end">Sat</text>
  
  <!-- Grid cells -->
  <rect x="20" y="60" width="12" height="12" fill="#161b22" rx="2" ry="2"><title>2025-06-08: 0 tokens</title></rect><rect x="20" y="75" width="12" height="12" fill="#161b22" rx="2" ry="2"><title>2025-06-09: 0 tokens</title></rect><rect x="20" y="90" width="12" height="12" fill="#161b22" rx="2" ry="2"><title>2025-06-10: 0 tokens</title></rect><rect x="20" y="105" width="12" height="12" fill="#161b22" rx="2" ry="2"><title>2025-06-11: 0 tokens</title></rect><rect x="20" y="120" width="12" height="12" fill="#161b22" rx="2" ry="2"><title>2025-06-12: 0 tokens</title></rect><rect x="20" y="135" width="12" height="12" fill="#161b22" rx="2" ry="2"><title>2025-06-13: 0 tokens</title></rect><rect x="20" y="150" width="12" height="12" fill="#161b22" rx="2" ry="2"><title>2025-06-14: 0 tokens</title></rect><rect x="35" y="60" width="12" height="12" fill="#161b22" rx="2" ry="2"><title>2025-06-15: 0 tokens</title></rect><rect x="35" y="75" width="12" height="12" fill="#161b22" rx="2" ry="2"><title>2025-06-16: 0 tokens</title></rect><rect x="35" y="90" width="12" height="12" fill="#161b22" rx="2" ry="2"><title>2025-06-17: 0 tokens</title></rect><rect x="35" y="105" width="12" height="12" fill="#161b22" rx="2" ry="2"><title>2025-06-18: 0 tokens</title></rect><rect x="35" y="120" width="12" height="12" fill="#161b22" rx="2" ry="2"><title>2025-06-19: 0 tokens</title></rect><rect x="35" y="135" width="12" height="12" fill="#161b22" rx="2" ry="2"><title>2025-06-20: 0 tokens</title></rect><rect x="35" y="150" width="12" height="12" fill="#161b22" rx="2" ry="2"><title>2025-06-21: 0 tokens</title></rect><rect x="50" y="60" width="12" height="12" fill="#161b22" rx="2" ry="2"><title>2025-06-22: 0 tokens</title></rect><rect x="50" y="75" width="12" height="12" fill="#161b22" rx="2" ry="2"><title>2025-06-23: 0 tokens</title></rect><rect x="50" y="90" width="12" height="12" fill="#161b22" rx="2" ry="2"><title>2025-06-24: 0 tokens</title></rect><rect x="50" y="105" width="12" height="12" fill="#161b22" rx="2" ry="2"><title>2025-06-25: 0 tokens</title></rect><rect x="50" y="120" width="12" height="12" fill="#161b22" rx="2" ry="2"><title>2025-06-26: 0 tokens</title></rect><rect x="50" y="135" width="12" height="12" fill="#161b22" rx="2" ry="2"><title>2025-06-27: 0 tokens</title></rect><rect x="50" y="150" width="12" height="12" fill="#161b22" rx="2" ry="2"><title>2025-06-28: 0 tokens</title></rect><rect x="65" y="60" width="12" height="12" fill="#161b22" rx="2" ry="2"><title>2025-06-29: 0 tokens</title></rect><rect x="65" y="75" width="12" height="12" fill="#161b22" rx="2" ry="2"><title>2025-06-30: 0 tokens</title></rect><rect x="65" y="90" width="12" height="12" fill="#161b22" rx="2" ry="2"><title>2025-07-01: 0 tokens</title></rect><rect x="65" y="105" width="12" height="12" fill="#161b22" rx="2" ry="2"><title>2025-07-02: 0 tokens</title></rect><rect x="65" y="120" width="12" height="12" fill="#161b22" rx="2" ry="2"><title>2025-07-03: 0 tokens</title></rect><rect x="65" y="135" width="12" height="12" fill="#161b22" rx="2" ry="2"><title>2025-07-04: 0 tokens</title></rect><rect x="65" y="150" width="12" height="12" fill="#161b22" rx="2" ry="2"><title>2025-07-05: 0 tokens</title></rect><rect x="80" y="60" width="12" height="12" fill="#161b22" rx="2" ry="2"><title>2025-07-06: 0 tokens</title></rect><rect x="80" y="75" width="12" height="12" fill="#161b22" rx="2" ry="2"><title>2025-07-07: 0 tokens</title></rect><rect x="80" y="90" width="12" height="12" fill="#161b22" rx="2" ry="2"><title>2025-07-08: 0 tokens</title></rect><rect x="80" y="105" width="12" height="12" fill="#161b22" rx="2" ry="2"><title>2025-07-09: 0 tokens</title></rect><rect x="80" y="120" width="12" height="12" fill="#161b22" rx="2" ry="2"><title>2025-07-10: 0 tokens</title></rect><rect x="80" y="135" width="12" height="12" fill="#161b22" rx="2" ry="2"><title>2025-07-11: 0 tokens</title></rect><rect x="80" y="150" width="12" height="12" fill="#161b22" rx="2" ry="2"><title>2025-07-12: 0 tokens</title></rect><rect x="95" y="60" width="12" height="12" fill="#161b22" rx="2" ry="2"><title>2025-07-13: 0 tokens</title></rect><rect x="95" y="75" width="12" height="12" fill="#161b22" rx="2" ry="2"><title>2025-07-14: 0 tokens</title></rect><rect x="95" y="90" width="12" height="12" fill="#161b22" rx="2" ry="2"><title>2025-07-15: 0 tokens</title></rect><rect x="95" y="105" width="12" height="12" fill="#161b22" rx="2" ry="2"><title>2025-07-16: 0 tokens</title></rect><rect x="95" y="120" width="12" height="12" fill="#161b22" rx="2" ry="2"><title>2025-07-17: 0 tokens</title></rect><rect x="95" y="135" width="12" height="12" fill="#161b22" rx="2" ry="2"><title>2025-07-18: 0 tokens</title></rect><rect x="95" y="150" width="12" height="12" fill="#161b22" rx="2" ry="2"><title>2025-07-19: 0 tokens</title></rect><rect x="110" y="60" width="12" height="12" fill="#161b22" rx="2" ry="2"><title>2025-07-20: 0 tokens</title></rect><rect x="110" y="75" width="12" height="12" fill="#161b22" rx="2" ry="2"><title>2025-07-21: 0 tokens</title></rect><rect x="110" y="90" width="12" height="12" fill="#161b22" rx="2" ry="2"><title>2025-07-22: 0 tokens</title></rect><rect x="110" y="105" width="12" height="12" fill="#161b22" rx="2" ry="2"><title>2025-07-23: 0 tokens</title></rect><rect x="110" y="120" width="12" height="12" fill="#161b22" rx="2" ry="2"><title>2025-07-24: 0 tokens</title></rect><rect x="110" y="135" width="12" height="12" fill="#161b22" rx="2" ry="2"><title>2025-07-25: 0 tokens</title></rect><rect x="110" y="150" width="12" height="12" fill="#161b22" rx="2" ry="2"><title>2025-07-26: 0 tokens</title></rect><rect x="125" y="60" width="12" height="12" fill="#161b22" rx="2" ry="2"><title>2025-07-27: 0 tokens</title></rect><rect x="125" y="75" width="12" height="12" fill="#161b22" rx="2" ry="2"><title>2025-07-28: 0 tokens</title></rect><rect x="125" y="90" width="12" height="12" fill="#161b22" rx="2" ry="2"><title>2025-07-29: 0 tokens</title></rect><rect x="125" y="105" width="12" height="12" fill="#161b22" rx="2" ry="2"><title>2025-07-30: 0 tokens</title></rect><rect x="125" y="120" width="12" height="12" fill="#161b22" rx="2" ry="2"><title>2025-07-31: 0 tokens</title></rect><rect x="125" y="135" width="12" height="12" fill="#161b22" rx="2" ry="2"><title>2025-08-01: 0 tokens</title></rect><rect x="125" y="150" width="12" height="12" fill="#161b22" rx="2" ry="2"><title>2025-08-02: 0 tokens</title></rect><rect x="140" y="60" width="12" height="12" fill="#161b22" rx="2" ry="2"><title>2025-08-03: 0 tokens</title></rect><rect x="140" y="75" width="12" height="12" fill="#161b22" rx="2" ry="2"><title>2025-08-04: 0 tokens</title></rect><rect x="140" y="90" width="12" height="12" fill="#161b22" rx="2" ry="2"><title>2025-08-05: 0 tokens</title></rect><rect x="140" y="105" width="12" height="12" fill="#161b22" rx="2" ry="2"><title>2025-08-06: 0 tokens</title></rect><rect x="140" y="120" width="12" height="12" fill="#161b22" rx="2" ry="2"><title>2025-08-07: 0 tokens</title></rect><rect x="140" y="135" width="12" height="12" fill="#161b22" rx="2" ry="2"><title>2025-08-08: 0 tokens</title></rect><rect x="140" y="150" width="12" height="12" fill="#161b22" rx="2" ry="2"><title>2025-08-09: 0 tokens</title></rect><rect x="155" y="60" width="12" height="12" fill="#161b22" rx="2" ry="2"><title>2025-08-10: 0 tokens</title></rect><rect x="155" y="75" width="12" height="12" fill="#161b22" rx="2" ry="2"><title>2025-08-11: 0 tokens</title></rect><rect x="155" y="90" width="12" height="12" fill="#161b22" rx="2" ry="2"><title>2025-08-12: 0 tokens</title></rect><rect x="155" y="105" width="12" height="12" fill="#161b22" rx="2" ry="2"><title>2025-08-13: 0 tokens</title></rect><rect x="155" y="120" width="12" height="12" fill="#161b22" rx="2" ry="2"><title>2025-08-14: 0 tokens</title></rect><rect x="155" y="135" width="12" height="12" fill="#161b22" rx="2" ry="2"><title>2025-08-15: 0 tokens</title></rect><rect x="155" y="150" width="12" height="12" fill="#161b22" rx="2" ry="2"><title>2025-08-16: 0 tokens</title></rect><rect x="170" y="60" width="12" height="12" fill="#161b22" rx="2" ry="2"><title>2025-08-17: 0 tokens</title></rect><rect x="170" y="75" width="12" height="12" fill="#161b22" rx="2" ry="2"><title>2025-08-18: 0 tokens</title></rect><rect x="170" y="90" width="12" height="12" fill="#161b22" rx="2" ry="2"><title>2025-08-19: 0 tokens</title></rect><rect x="170" y="105" width="12" height="12" fill="#161b22" rx="2" ry="2"><title>2025-08-20: 0 tokens</title></rect><rect x="170" y="120" width="12" height="12" fill="#161b22" rx="2" ry="2"><title>2025-08-21: 0 tokens</title></rect><rect x="170" y="135" width="12" height="12" fill="#161b22" rx="2" ry="2"><title>2025-08-22: 0 tokens</title></rect><rect x="170" y="150" width="12" height="12" fill="#161b22" rx="2" ry="2"><title>2025-08-23: 0 tokens</title></rect><rect x="185" y="60" width="12" height="12" fill="#161b22" rx="2" ry="2"><title>2025-08-24: 0 tokens</title></rect><rect x="185" y="75" width="12" height="12" fill="#161b22" rx="2" ry="2"><title>2025-08-25: 0 tokens</title></rect><rect x="185" y="90" width="12" height="12" fill="#161b22" rx="2" ry="2"><title>2025-08-26: 0 tokens</title></rect><rect x="185" y="105" width="12" height="12" fill="#161b22" rx="2" ry="2"><title>2025-08-27: 0 tokens</title></rect><rect x="185" y="120" width="12" height="12" fill="#161b22" rx="2" ry="2"><title>2025-08-28: 0 tokens</title></rect><rect x="185" y="135" width="12" height="12" fill="#161b22" rx="2" ry="2"><title>2025-08-29: 0 tokens</title></rect><rect x="185" y="150" width="12" height="12" fill="#161b22" rx="2" ry="2"><title>2025-08-30: 0 tokens</title></rect><rect x="200" y="60" width="12" height="12" fill="#161b22" rx="2" ry="2"><title>2025-08-31: 0 tokens</title></rect><rect x="200" y="75" width="12" height="12" fill="#161b22" rx="2" ry="2"><title>2025-09-01: 0 tokens</title></rect><rect x="200" y="90" width="12" height="12" fill="#161b22" rx="2" ry="2"><title>2025-09-02: 0 tokens</title></rect><rect x="200" y="105" width="12" height="12" fill="#161b22" rx="2" ry="2"><title>2025-09-03: 0 tokens</title></rect><rect x="200" y="120" width="12" height="12" fill="#161b22" rx="2" ry="2"><title>2025-09-04: 0 tokens</title></rect><rect x="200" y="135" width="12" height="12" fill="#161b22" rx="2" ry="2"><title>2025-09-05: 0 tokens</title></rect><rect x="200" y="150" width="12" height="12" fill="#161b22" rx="2" ry="2"><title>2025-09-06: 0 tokens</title></rect><rect x="215" y="60" width="12" height="12" fill="#161b22" rx="2" ry="2"><title>2025-09-07: 0 tokens</title></rect><rect x="215" y="75" width="12" height="12" fill="#161b22" rx="2" ry="2"><title>2025-09-08: 0 tokens</title></rect><rect x="215" y="90" width="12" height="12" fill="#161b22" rx="2" ry="2"><title>2025-09-09: 0 tokens</title></rect><rect x="215" y="105" width="12" height="12" fill="#161b22" rx="2" ry="2"><title>2025-09-10: 0 tokens</title></rect><rect x="215" y="120" width="12" height="12" fill="#161b22" rx="2" ry="2"><title>2025-09-11: 0 tokens</title></rect><rect x="215" y="135" width="12" height="12" fill="#161b22" rx="2" ry="2"><title>2025-09-12: 0 tokens</title></rect><rect x="215" y="150" width="12" height="12" fill="#161b22" rx="2" ry="2"><title>2025-09-13: 0 tokens</title></rect><rect x="230" y="60" width="12" height="12" fill="#161b22" rx="2" ry="2"><title>2025-09-14: 0 tokens</title></rect><rect x="230" y="75" width="12" height="12" fill="#161b22" rx="2" ry="2"><title>2025-09-15: 0 tokens</title></rect><rect x="230" y="90" width="12" height="12" fill="#161b22" rx="2" ry="2"><title>2025-09-16: 0 tokens</title></rect><rect x="230" y="105" width="12" height="12" fill="#161b22" rx="2" ry="2"><title>2025-09-17: 0 tokens</title></rect><rect x="230" y="120" width="12" height="12" fill="#161b22" rx="2" ry="2"><title>2025-09-18: 0 tokens</title></rect><rect x="230" y="135" width="12" height="12" fill="#161b22" rx="2" ry="2"><title>2025-09-19: 0 tokens</title></rect><rect x="230" y="150" width="12" height="12" fill="#161b22" rx="2" ry="2"><title>2025-09-20: 0 tokens</title></rect><rect x="245" y="60" width="12" height="12" fill="#161b22" rx="2" ry="2"><title>2025-09-21: 0 tokens</title></rect><rect x="245" y="75" width="12" height="12" fill="#161b22" rx="2" ry="2"><title>2025-09-22: 0 tokens</title></rect><rect x="245" y="90" width="12" height="12" fill="#161b22" rx="2" ry="2"><title>2025-09-23: 0 tokens</title></rect><rect x="245" y="105" width="12" height="12" fill="#161b22" rx="2" ry="2"><title>2025-09-24: 0 tokens</title></rect><rect x="245" y="120" width="12" height="12" fill="#161b22" rx="2" ry="2"><title>2025-09-25: 0 tokens</title></rect><rect x="245" y="135" width="12" height="12" fill="#161b22" rx="2" ry="2"><title>2025-09-26: 0 tokens</title></rect><rect x="245" y="150" width="12" height="12" fill="#161b22" rx="2" ry="2"><title>2025-09-27: 0 tokens</title></rect><rect x="260" y="60" width="12" height="12" fill="#161b22" rx="2" ry="2"><title>2025-09-28: 0 tokens</title></rect><rect x="260" y="75" width="12" height="12" fill="#161b22" rx="2" ry="2"><title>2025-09-29: 0 tokens</title></rect><rect x="260" y="90" width="12" height="12" fill="#161b22" rx="2" ry="2"><title>2025-09-30: 0 tokens</title></rect><rect x="260" y="105" width="12" height="12" fill="#161b22" rx="2" ry="2"><title>2025-10-01: 0 tokens</title></rect><rect x="260" y="120" width="12" height="12" fill="#161b22" rx="2" ry="2"><title>2025-10-02: 0 tokens</title></rect><rect x="260" y="135" width="12" height="12" fill="#161b22" rx="2" ry="2"><title>2025-10-03: 0 tokens</title></rect><rect x="260" y="150" width="12" height="12" fill="#161b22" rx="2" ry="2"><title>2025-10-04: 0 tokens</title></rect><rect x="275" y="60" width="12" height="12" fill="#161b22" rx="2" ry="2"><title>2025-10-05: 0 tokens</title></rect><rect x="275" y="75" width="12" height="12" fill="#161b22" rx="2" ry="2"><title>2025-10-06: 0 tokens</title></rect><rect x="275" y="90" width="12" height="12" fill="#161b22" rx="2" ry="2"><title>2025-10-07: 0 tokens</title></rect><rect x="275" y="105" width="12" height="12" fill="#161b22" rx="2" ry="2"><title>2025-10-08: 0 tokens</title></rect><rect x="275" y="120" width="12" height="12" fill="#161b22" rx="2" ry="2"><title>2025-10-09: 0 tokens</title></rect><rect x="275" y="135" width="12" height="12" fill="#161b22" rx="2" ry="2"><title>2025-10-10: 0 tokens</title></rect><rect x="275" y="150" width="12" height="12" fill="#161b22" rx="2" ry="2"><title>2025-10-11: 0 tokens</title></rect><rect x="290" y="60" width="12" height="12" fill="#161b22" rx="2" ry="2"><title>2025-10-12: 0 tokens</title></rect><rect x="290" y="75" width="12" height="12" fill="#161b22" rx="2" ry="2"><title>2025-10-13: 0 tokens</title></rect><rect x="290" y="90" width="12" height="12" fill="#161b22" rx="2" ry="2"><title>2025-10-14: 0 tokens</title></rect><rect x="290" y="105" width="12" height="12" fill="#161b22" rx="2" ry="2"><title>2025-10-15: 0 tokens</title></rect><rect x="290" y="120" width="12" height="12" fill="#161b22" rx="2" ry="2"><title>2025-10-16: 0 tokens</title></rect><rect x="290" y="135" width="12" height="12" fill="#161b22" rx="2" ry="2"><title>2025-10-17: 0 tokens</title></rect><rect x="290" y="150" width="12" height="12" fill="#161b22" rx="2" ry="2"><title>2025-10-18: 0 tokens</title></rect><rect x="305" y="60" width="12" height="12" fill="#161b22" rx="2" ry="2"><title>2025-10-19: 0 tokens</title></rect><rect x="305" y="75" width="12" height="12" fill="#161b22" rx="2" ry="2"><title>2025-10-20: 0 tokens</title></rect><rect x="305" y="90" width="12" height="12" fill="#161b22" rx="2" ry="2"><title>2025-10-21: 0 tokens</title></rect><rect x="305" y="105" width="12" height="12" fill="#161b22" rx="2" ry="2"><title>2025-10-22: 0 tokens</title></rect><rect x="305" y="120" width="12" height="12" fill="#161b22" rx="2" ry="2"><title>2025-10-23: 0 tokens</title></rect><rect x="305" y="135" width="12" height="12" fill="#161b22" rx="2" ry="2"><title>2025-10-24: 0 tokens</title></rect><rect x="305" y="150" width="12" height="12" fill="#161b22" rx="2" ry="2"><title>2025-10-25: 0 tokens</title></rect><rect x="320" y="60" width="12" height="12" fill="#161b22" rx="2" ry="2"><title>2025-10-26: 0 tokens</title></rect><rect x="320" y="75" width="12" height="12" fill="#161b22" rx="2" ry="2"><title>2025-10-27: 0 tokens</title></rect><rect x="320" y="90" width="12" height="12" fill="#161b22" rx="2" ry="2"><title>2025-10-28: 0 tokens</title></rect><rect x="320" y="105" width="12" height="12" fill="#161b22" rx="2" ry="2"><title>2025-10-29: 0 tokens</title></rect><rect x="320" y="120" width="12" height="12" fill="#161b22" rx="2" ry="2"><title>2025-10-30: 0 tokens</title></rect><rect x="320" y="135" width="12" height="12" fill="#161b22" rx="2" ry="2"><title>2025-10-31: 0 tokens</title></rect><rect x="320" y="150" width="12" height="12" fill="#161b22" rx="2" ry="2"><title>2025-11-01: 0 tokens</title></rect><rect x="335" y="60" width="12" height="12" fill="#161b22" rx="2" ry="2"><title>2025-11-02: 0 tokens</title></rect><rect x="335" y="75" width="12" height="12" fill="#161b22" rx="2" ry="2"><title>2025-11-03: 0 tokens</title></rect><rect x="335" y="90" width="12" height="12" fill="#161b22" rx="2" ry="2"><title>2025-11-04: 0 tokens</title></rect><rect x="335" y="105" width="12" height="12" fill="#161b22" rx="2" ry="2"><title>2025-11-05: 0 tokens</title></rect><rect x="335" y="120" width="12" height="12" fill="#161b22" rx="2" ry="2"><title>2025-11-06: 0 tokens</title></rect><rect x="335" y="135" width="12" height="12" fill="#161b22" rx="2" ry="2"><title>2025-11-07: 0 tokens</title></rect><rect x="335" y="150" width="12" height="12" fill="#161b22" rx="2" ry="2"><title>2025-11-08: 0 tokens</title></rect><rect x="350" y="60" width="12" height="12" fill="#161b22" rx="2" ry="2"><title>2025-11-09: 0 tokens</title></rect><rect x="350" y="75" width="12" height="12" fill="#161b22" rx="2" ry="2"><title>2025-11-10: 0 tokens</title></rect><rect x="350" y="90" width="12" height="12" fill="#161b22" rx="2" ry="2"><title>2025-11-11: 0 tokens</title></rect><rect x="350" y="105" width="12" height="12" fill="#161b22" rx="2" ry="2"><title>2025-11-12: 0 tokens</title></rect><rect x="350" y="120" width="12" height="12" fill="#161b22" rx="2" ry="2"><title>2025-11-13: 0 tokens</title></rect><rect x="350" y="135" width="12" height="12" fill="#161b22" rx="2" ry="2"><title>2025-11-14: 0 tokens</title></rect><rect x="350" y="150" width="12" height="12" fill="#161b22" rx="2" ry="2"><title>2025-11-15: 0 tokens</title></rect><rect x="365" y="60" width="12" height="12" fill="#161b22" rx="2" ry="2"><title>2025-11-16: 0 tokens</title></rect><rect x="365" y="75" width="12" height="12" fill="#161b22" rx="2" ry="2"><title>2025-11-17: 0 tokens</title></rect><rect x="365" y="90" width="12" height="12" fill="#161b22" rx="2" ry="2"><title>2025-11-18: 0 tokens</title></rect><rect x="365" y="105" width="12" height="12" fill="#161b22" rx="2" ry="2"><title>2025-11-19: 0 tokens</title></rect><rect x="365" y="120" width="12" height="12" fill="#161b22" rx="2" ry="2"><title>2025-11-20: 0 tokens</title></rect><rect x="365" y="135" width="12" height="12" fill="#161b22" rx="2" ry="2"><title>2025-11-21: 0 tokens</title></rect><rect x="365" y="150" width="12" height="12" fill="#161b22" rx="2" ry="2"><title>2025-11-22: 0 tokens</title></rect><rect x="380" y="60" width="12" height="12" fill="#161b22" rx="2" ry="2"><title>2025-11-23: 0 tokens</title></rect><rect x="380" y="75" width="12" height="12" fill="#161b22" rx="2" ry="2"><title>2025-11-24: 0 tokens</title></rect><rect x="380" y="90" width="12" height="12" fill="#161b22" rx="2" ry="2"><title>2025-11-25: 0 tokens</title></rect><rect x="380" y="105" width="12" height="12" fill="#161b22" rx="2" ry="2"><title>2025-11-26: 0 tokens</title></rect><rect x="380" y="120" width="12" height="12" fill="#161b22" rx="2" ry="2"><title>2025-11-27: 0 tokens</title></rect><rect x="380" y="135" width="12" height="12" fill="#161b22" rx="2" ry="2"><title>2025-11-28: 0 tokens</title></rect><rect x="380" y="150" width="12" height="12" fill="#161b22" rx="2" ry="2"><title>2025-11-29: 0 tokens</title></rect><rect x="395" y="60" width="12" height="12" fill="#161b22" rx="2" ry="2"><title>2025-11-30: 0 tokens</title></rect><rect x="395" y="75" width="12" height="12" fill="#161b22" rx="2" ry="2"><title>2025-12-01: 0 tokens</title></rect><rect x="395" y="90" width="12" height="12" fill="#161b22" rx="2" ry="2"><title>2025-12-02: 0 tokens</title></rect><rect x="395" y="105" width="12" height="12" fill="#161b22" rx="2" ry="2"><title>2025-12-03: 0 tokens</title></rect><rect x="395" y="120" width="12" height="12" fill="#161b22" rx="2" ry="2"><title>2025-12-04: 0 tokens</title></rect><rect x="395" y="135" width="12" height="12" fill="#161b22" rx="2" ry="2"><title>2025-12-05: 0 tokens</title></rect><rect x="395" y="150" width="12" height="12" fill="#161b22" rx="2" ry="2"><title>2025-12-06: 0 tokens</title></rect><rect x="410" y="60" width="12" height="12" fill="#161b22" rx="2" ry="2"><title>2025-12-07: 0 tokens</title></rect><rect x="410" y="75" width="12" height="12" fill="#161b22" rx="2" ry="2"><title>2025-12-08: 0 tokens</title></rect><rect x="410" y="90" width="12" height="12" fill="#161b22" rx="2" ry="2"><title>2025-12-09: 0 tokens</title></rect><rect x="410" y="105" width="12" height="12" fill="#161b22" rx="2" ry="2"><title>2025-12-10: 0 tokens</title></rect><rect x="410" y="120" width="12" height="12" fill="#161b22" rx="2" ry="2"><title>2025-12-11: 0 tokens</title></rect><rect x="410" y="135" width="12" height="12" fill="#161b22" rx="2" ry="2"><title>2025-12-12: 0 tokens</title></rect><rect x="410" y="150" width="12" height="12" fill="#161b22" rx="2" ry="2"><title>2025-12-13: 0 tokens</title></rect><rect x="425" y="60" width="12" height="12" fill="#161b22" rx="2" ry="2"><title>2025-12-14: 0 tokens</title></rect><rect x="425" y="75" width="12" height="12" fill="#161b22" rx="2" ry="2"><title>2025-12-15: 0 tokens</title></rect><rect x="425" y="90" width="12" height="12" fill="#161b22" rx="2" ry="2"><title>2025-12-16: 0 tokens</title></rect><rect x="425" y="105" width="12" height="12" fill="#161b22" rx="2" ry="2"><title>2025-12-17: 0 tokens</title></rect><rect x="425" y="120" width="12" height="12" fill="#161b22" rx="2" ry="2"><title>2025-12-18: 0 tokens</title></rect><rect x="425" y="135" width="12" height="12" fill="#161b22" rx="2" ry="2"><title>2025-12-19: 0 tokens</title></rect><rect x="425" y="150" width="12" height="12" fill="#161b22" rx="2" ry="2"><title>2025-12-20: 0 tokens</title></rect><rect x="440" y="60" width="12" height="12" fill="#161b22" rx="2" ry="2"><title>2025-12-21: 0 tokens</title></rect><rect x="440" y="75" width="12" height="12" fill="#161b22" rx="2" ry="2"><title>2025-12-22: 0 tokens</title></rect><rect x="440" y="90" width="12" height="12" fill="#161b22" rx="2" ry="2"><title>2025-12-23: 0 tokens</title></rect><rect x="440" y="105" width="12" height="12" fill="#161b22" rx="2" ry="2"><title>2025-12-24: 0 tokens</title></rect><rect x="440" y="120" width="12" height="12" fill="#161b22" rx="2" ry="2"><title>2025-12-25: 0 tokens</title></rect><rect x="440" y="135" width="12" height="12" fill="#161b22" rx="2" ry="2"><title>2025-12-26: 0 tokens</title></rect><rect x="440" y="150" width="12" height="12" fill="#161b22" rx="2" ry="2"><title>2025-12-27: 0 tokens</title></rect><rect x="455" y="60" width="12" height="12" fill="#161b22" rx="2" ry="2"><title>2025-12-28: 0 tokens</title></rect><rect x="455" y="75" width="12" height="12" fill="#161b22" rx="2" ry="2"><title>2025-12-29: 0 tokens</title></rect><rect x="455" y="90" width="12" height="12" fill="#161b22" rx="2" ry="2"><title>2025-12-30: 0 tokens</title></rect><rect x="455" y="105" width="12" height="12" fill="#161b22" rx="2" ry="2"><title>2025-12-31: 0 tokens</title></rect><rect x="455" y="120" width="12" height="12" fill="#161b22" rx="2" ry="2"><title>2026-01-01: 0 tokens</title></rect><rect x="455" y="135" width="12" height="12" fill="#161b22" rx="2" ry="2"><title>2026-01-02: 0 tokens</title></rect><rect x="455" y="150" width="12" height="12" fill="#161b22" rx="2" ry="2"><title>2026-01-03: 0 tokens</title></rect><rect x="470" y="60" width="12" height="12" fill="#161b22" rx="2" ry="2"><title>2026-01-04: 0 tokens</title></rect><rect x="470" y="75" width="12" height="12" fill="#161b22" rx="2" ry="2"><title>2026-01-05: 0 tokens</title></rect><rect x="470" y="90" width="12" height="12" fill="#161b22" rx="2" ry="2"><title>2026-01-06: 0 tokens</title></rect><rect x="470" y="105" width="12" height="12" fill="#161b22" rx="2" ry="2"><title>2026-01-07: 0 tokens</title></rect><rect x="470" y="120" width="12" height="12" fill="#161b22" rx="2" ry="2"><title>2026-01-08: 0 tokens</title></rect><rect x="470" y="135" width="12" height="12" fill="#161b22" rx="2" ry="2"><title>2026-01-09: 0 tokens</title></rect><rect x="470" y="150" width="12" height="12" fill="#161b22" rx="2" ry="2"><title>2026-01-10: 0 tokens</title></rect><rect x="485" y="60" width="12" height="12" fill="#161b22" rx="2" ry="2"><title>2026-01-11: 0 tokens</title></rect><rect x="485" y="75" width="12" height="12" fill="#161b22" rx="2" ry="2"><title>2026-01-12: 0 tokens</title></rect><rect x="485" y="90" width="12" height="12" fill="#161b22" rx="2" ry="2"><title>2026-01-13: 0 tokens</title></rect><rect x="485" y="105" width="12" height="12" fill="#161b22" rx="2" ry="2"><title>2026-01-14: 0 tokens</title></rect><rect x="485" y="120" width="12" height="12" fill="#161b22" rx="2" ry="2"><title>2026-01-15: 0 tokens</title></rect><rect x="485" y="135" width="12" height="12" fill="#161b22" rx="2" ry="2"><title>2026-01-16: 0 tokens</title></rect><rect x="485" y="150" width="12" height="12" fill="#161b22" rx="2" ry="2"><title>2026-01-17: 0 tokens</title></rect><rect x="500" y="60" width="12" height="12" fill="#161b22" rx="2" ry="2"><title>2026-01-18: 0 tokens</title></rect><rect x="500" y="75" width="12" height="12" fill="#161b22" rx="2" ry="2"><title>2026-01-19: 0 tokens</title></rect><rect x="500" y="90" width="12" height="12" fill="#161b22" rx="2" ry="2"><title>2026-01-20: 0 tokens</title></rect><rect x="500" y="105" width="12" height="12" fill="#161b22" rx="2" ry="2"><title>2026-01-21: 0 tokens</title></rect><rect x="500" y="120" width="12" height="12" fill="#161b22" rx="2" ry="2"><title>2026-01-22: 0 tokens</title></rect><rect x="500" y="135" width="12" height="12" fill="#161b22" rx="2" ry="2"><title>2026-01-23: 0 tokens</title></rect><rect x="500" y="150" width="12" height="12" fill="#161b22" rx="2" ry="2"><title>2026-01-24: 0 tokens</title></rect><rect x="515" y="60" width="12" height="12" fill="#161b22" rx="2" ry="2"><title>2026-01-25: 0 tokens</title></rect><rect x="515" y="75" width="12" height="12" fill="#161b22" rx="2" ry="2"><title>2026-01-26: 0 tokens</title></rect><rect x="515" y="90" width="12" height="12" fill="#161b22" rx="2" ry="2"><title>2026-01-27: 0 tokens</title></rect><rect x="515" y="105" width="12" height="12" fill="#161b22" rx="2" ry="2"><title>2026-01-28: 0 tokens</title></rect><rect x="515" y="120" width="12" height="12" fill="#161b22" rx="2" ry="2"><title>2026-01-29: 0 tokens</title></rect><rect x="515" y="135" width="12" height="12" fill="#161b22" rx="2" ry="2"><title>2026-01-30: 0 tokens</title></rect><rect x="515" y="150" width="12" height="12" fill="#161b22" rx="2" ry="2"><title>2026-01-31: 0 tokens</title></rect><rect x="530" y="60" width="12" height="12" fill="#161b22" rx="2" ry="2"><title>2026-02-01: 0 tokens</title></rect><rect x="530" y="75" width="12" height="12" fill="#161b22" rx="2" ry="2"><title>2026-02-02: 0 tokens</title></rect><rect x="530" y="90" width="12" height="12" fill="#161b22" rx="2" ry="2"><title>2026-02-03: 0 tokens</title></rect><rect x="530" y="105" width="12" height="12" fill="#161b22" rx="2" ry="2"><title>2026-02-04: 0 tokens</title></rect><rect x="530" y="120" width="12" height="12" fill="#161b22" rx="2" ry="2"><title>2026-02-05: 0 tokens</title></rect><rect x="530" y="135" width="12" height="12" fill="#161b22" rx="2" ry="2"><title>2026-02-06: 0 tokens</title></rect><rect x="530" y="150" width="12" height="12" fill="#161b22" rx="2" ry="2"><title>2026-02-07: 0 tokens</title></rect><rect x="545" y="60" width="12" height="12" fill="#161b22" rx="2" ry="2"><title>2026-02-08: 0 tokens</title></rect><rect x="545" y="75" width="12" height="12" fill="#161b22" rx="2" ry="2"><title>2026-02-09: 0 tokens</title></rect><rect x="545" y="90" width="12" height="12" fill="#161b22" rx="2" ry="2"><title>2026-02-10: 0 tokens</title></rect><rect x="545" y="105" width="12" height="12" fill="#161b22" rx="2" ry="2"><title>2026-02-11: 0 tokens</title></rect><rect x="545" y="120" width="12" height="12" fill="#161b22" rx="2" ry="2"><title>2026-02-12: 0 tokens</title></rect><rect x="545" y="135" width="12" height="12" fill="#161b22" rx="2" ry="2"><title>2026-02-13: 0 tokens</title></rect><rect x="545" y="150" width="12" height="12" fill="#161b22" rx="2" ry="2"><title>2026-02-14: 0 tokens</title></rect><rect x="560" y="60" width="12" height="12" fill="#161b22" rx="2" ry="2"><title>2026-02-15: 0 tokens</title></rect><rect x="560" y="75" width="12" height="12" fill="#161b22" rx="2" ry="2"><title>2026-02-16: 0 tokens</title></rect><rect x="560" y="90" width="12" height="12" fill="#161b22" rx="2" ry="2"><title>2026-02-17: 0 tokens</title></rect><rect x="560" y="105" width="12" height="12" fill="#161b22" rx="2" ry="2"><title>2026-02-18: 0 tokens</title></rect><rect x="560" y="120" width="12" height="12" fill="#161b22" rx="2" ry="2"><title>2026-02-19: 0 tokens</title></rect><rect x="560" y="135" width="12" height="12" fill="#161b22" rx="2" ry="2"><title>2026-02-20: 0 tokens</title></rect><rect x="560" y="150" width="12" height="12" fill="#161b22" rx="2" ry="2"><title>2026-02-21: 0 tokens</title></rect><rect x="575" y="60" width="12" height="12" fill="#161b22" rx="2" ry="2"><title>2026-02-22: 0 tokens</title></rect><rect x="575" y="75" width="12" height="12" fill="#161b22" rx="2" ry="2"><title>2026-02-23: 0 tokens</title></rect><rect x="575" y="90" width="12" height="12" fill="#161b22" rx="2" ry="2"><title>2026-02-24: 0 tokens</title></rect><rect x="575" y="105" width="12" height="12" fill="#161b22" rx="2" ry="2"><title>2026-02-25: 0 tokens</title></rect><rect x="575" y="120" width="12" height="12" fill="#161b22" rx="2" ry="2"><title>2026-02-26: 0 tokens</title></rect><rect x="575" y="135" width="12" height="12" fill="#161b22" rx="2" ry="2"><title>2026-02-27: 0 tokens</title></rect><rect x="575" y="150" width="12" height="12" fill="#161b22" rx="2" ry="2"><title>2026-02-28: 0 tokens</title></rect><rect x="590" y="60" width="12" height="12" fill="#161b22" rx="2" ry="2"><title>2026-03-01: 0 tokens</title></rect><rect x="590" y="75" width="12" height="12" fill="#161b22" rx="2" ry="2"><title>2026-03-02: 0 tokens</title></rect><rect x="590" y="90" width="12" height="12" fill="#161b22" rx="2" ry="2"><title>2026-03-03: 0 tokens</title></rect><rect x="590" y="105" width="12" height="12" fill="#161b22" rx="2" ry="2"><title>2026-03-04: 0 tokens</title></rect><rect x="590" y="120" width="12" height="12" fill="#161b22" rx="2" ry="2"><title>2026-03-05: 0 tokens</title></rect><rect x="590" y="135" width="12" height="12" fill="#161b22" rx="2" ry="2"><title>2026-03-06: 0 tokens</title></rect><rect x="590" y="150" width="12" height="12" fill="#161b22" rx="2" ry="2"><title>2026-03-07: 0 tokens</title></rect><rect x="605" y="60" width="12" height="12" fill="#161b22" rx="2" ry="2"><title>2026-03-08: 0 tokens</title></rect><rect x="605" y="75" width="12" height="12" fill="#161b22" rx="2" ry="2"><title>2026-03-09: 0 tokens</title></rect><rect x="605" y="90" width="12" height="12" fill="#161b22" rx="2" ry="2"><title>2026-03-10: 0 tokens</title></rect><rect x="605" y="105" width="12" height="12" fill="#161b22" rx="2" ry="2"><title>2026-03-11: 0 tokens</title></rect><rect x="605" y="120" width="12" height="12" fill="#161b22" rx="2" ry="2"><title>2026-03-12: 0 tokens</title></rect><rect x="605" y="135" width="12" height="12" fill="#161b22" rx="2" ry="2"><title>2026-03-13: 0 tokens</title></rect><rect x="605" y="150" width="12" height="12" fill="#161b22" rx="2" ry="2"><title>2026-03-14: 0 tokens</title></rect><rect x="620" y="60" width="12" height="12" fill="#161b22" rx="2" ry="2"><title>2026-03-15: 0 tokens</title></rect><rect x="620" y="75" width="12" height="12" fill="#161b22" rx="2" ry="2"><title>2026-03-16: 0 tokens</title></rect><rect x="620" y="90" width="12" height="12" fill="#161b22" rx="2" ry="2"><title>2026-03-17: 0 tokens</title></rect><rect x="620" y="105" width="12" height="12" fill="#161b22" rx="2" ry="2"><title>2026-03-18: 0 tokens</title></rect><rect x="620" y="120" width="12" height="12" fill="#161b22" rx="2" ry="2"><title>2026-03-19: 0 tokens</title></rect><rect x="620" y="135" width="12" height="12" fill="#161b22" rx="2" ry="2"><title>2026-03-20: 0 tokens</title></rect><rect x="620" y="150" width="12" height="12" fill="#161b22" rx="2" ry="2"><title>2026-03-21: 0 tokens</title></rect><rect x="635" y="60" width="12" height="12" fill="#161b22" rx="2" ry="2"><title>2026-03-22: 0 tokens</title></rect><rect x="635" y="75" width="12" height="12" fill="#161b22" rx="2" ry="2"><title>2026-03-23: 0 tokens</title></rect><rect x="635" y="90" width="12" height="12" fill="#161b22" rx="2" ry="2"><title>2026-03-24: 0 tokens</title></rect><rect x="635" y="105" width="12" height="12" fill="#161b22" rx="2" ry="2"><title>2026-03-25: 0 tokens</title></rect><rect x="635" y="120" width="12" height="12" fill="#161b22" rx="2" ry="2"><title>2026-03-26: 0 tokens</title></rect><rect x="635" y="135" width="12" height="12" fill="#161b22" rx="2" ry="2"><title>2026-03-27: 0 tokens</title></rect><rect x="635" y="150" width="12" height="12" fill="#161b22" rx="2" ry="2"><title>2026-03-28: 0 tokens</title></rect><rect x="650" y="60" width="12" height="12" fill="#161b22" rx="2" ry="2"><title>2026-03-29: 0 tokens</title></rect><rect x="650" y="75" width="12" height="12" fill="#161b22" rx="2" ry="2"><title>2026-03-30: 0 tokens</title></rect><rect x="650" y="90" width="12" height="12" fill="#161b22" rx="2" ry="2"><title>2026-03-31: 0 tokens</title></rect><rect x="650" y="105" width="12" height="12" fill="#161b22" rx="2" ry="2"><title>2026-04-01: 0 tokens</title></rect><rect x="650" y="120" width="12" height="12" fill="#161b22" rx="2" ry="2"><title>2026-04-02: 0 tokens</title></rect><rect x="650" y="135" width="12" height="12" fill="#161b22" rx="2" ry="2"><title>2026-04-03: 0 tokens</title></rect><rect x="650" y="150" width="12" height="12" fill="#161b22" rx="2" ry="2"><title>2026-04-04: 0 tokens</title></rect><rect x="665" y="60" width="12" height="12" fill="#161b22" rx="2" ry="2"><title>2026-04-05: 0 tokens</title></rect><rect x="665" y="75" width="12" height="12" fill="#161b22" rx="2" ry="2"><title>2026-04-06: 0 tokens</title></rect><rect x="665" y="90" width="12" height="12" fill="#161b22" rx="2" ry="2"><title>2026-04-07: 0 tokens</title></rect><rect x="665" y="105" width="12" height="12" fill="#161b22" rx="2" ry="2"><title>2026-04-08: 0 tokens</title></rect><rect x="665" y="120" width="12" height="12" fill="#161b22" rx="2" ry="2"><title>2026-04-09: 0 tokens</title></rect><rect x="665" y="135" width="12" height="12" fill="#161b22" rx="2" ry="2"><title>2026-04-10: 0 tokens</title></rect><rect x="665" y="150" width="12" height="12" fill="#161b22" rx="2" ry="2"><title>2026-04-11: 0 tokens</title></rect><rect x="680" y="60" width="12" height="12" fill="#161b22" rx="2" ry="2"><title>2026-04-12: 0 tokens</title></rect><rect x="680" y="75" width="12" height="12" fill="#161b22" rx="2" ry="2"><title>2026-04-13: 0 tokens</title></rect><rect x="680" y="90" width="12" height="12" fill="#161b22" rx="2" ry="2"><title>2026-04-14: 0 tokens</title></rect><rect x="680" y="105" width="12" height="12" fill="#161b22" rx="2" ry="2"><title>2026-04-15: 0 tokens</title></rect><rect x="680" y="120" width="12" height="12" fill="#161b22" rx="2" ry="2"><title>2026-04-16: 0 tokens</title></rect><rect x="680" y="135" width="12" height="12" fill="#161b22" rx="2" ry="2"><title>2026-04-17: 0 tokens</title></rect><rect x="680" y="150" width="12" height="12" fill="#161b22" rx="2" ry="2"><title>2026-04-18: 0 tokens</title></rect><rect x="695" y="60" width="12" height="12" fill="#161b22" rx="2" ry="2"><title>2026-04-19: 0 tokens</title></rect><rect x="695" y="75" width="12" height="12" fill="#161b22" rx="2" ry="2"><title>2026-04-20: 0 tokens</title></rect><rect x="695" y="90" width="12" height="12" fill="#161b22" rx="2" ry="2"><title>2026-04-21: 0 tokens</title></rect><rect x="695" y="105" width="12" height="12" fill="#161b22" rx="2" ry="2"><title>2026-04-22: 0 tokens</title></rect><rect x="695" y="120" width="12" height="12" fill="#161b22" rx="2" ry="2"><title>2026-04-23: 0 tokens</title></rect><rect x="695" y="135" width="12" height="12" fill="#161b22" rx="2" ry="2"><title>2026-04-24: 0 tokens</title></rect><rect x="695" y="150" width="12" height="12" fill="#161b22" rx="2" ry="2"><title>2026-04-25: 0 tokens</title></rect><rect x="710" y="60" width="12" height="12" fill="#161b22" rx="2" ry="2"><title>2026-04-26: 0 tokens</title></rect><rect x="710" y="75" width="12" height="12" fill="#161b22" rx="2" ry="2"><title>2026-04-27: 0 tokens</title></rect><rect x="710" y="90" width="12" height="12" fill="#161b22" rx="2" ry="2"><title>2026-04-28: 0 tokens</title></rect><rect x="710" y="105" width="12" height="12" fill="#161b22" rx="2" ry="2"><title>2026-04-29: 0 tokens</title></rect><rect x="710" y="120" width="12" height="12" fill="#161b22" rx="2" ry="2"><title>2026-04-30: 0 tokens</title></rect><rect x="710" y="135" width="12" height="12" fill="#161b22" rx="2" ry="2"><title>2026-05-01: 0 tokens</title></rect><rect x="710" y="150" width="12" height="12" fill="#161b22" rx="2" ry="2"><title>2026-05-02: 0 tokens</title></rect><rect x="725" y="60" width="12" height="12" fill="#161b22" rx="2" ry="2"><title>2026-05-03: 0 tokens</title></rect><rect x="725" y="75" width="12" height="12" fill="#161b22" rx="2" ry="2"><title>2026-05-04: 0 tokens</title></rect><rect x="725" y="90" width="12" height="12" fill="#161b22" rx="2" ry="2"><title>2026-05-05: 0 tokens</title></rect><rect x="725" y="105" width="12" height="12" fill="#161b22" rx="2" ry="2"><title>2026-05-06: 0 tokens</title></rect><rect x="725" y="120" width="12" height="12" fill="#161b22" rx="2" ry="2"><title>2026-05-07: 0 tokens</title></rect><rect x="725" y="135" width="12" height="12" fill="#161b22" rx="2" ry="2"><title>2026-05-08: 0 tokens</title></rect><rect x="725" y="150" width="12" height="12" fill="#161b22" rx="2" ry="2"><title>2026-05-09: 0 tokens</title></rect><rect x="740" y="60" width="12" height="12" fill="#161b22" rx="2" ry="2"><title>2026-05-10: 0 tokens</title></rect><rect x="740" y="75" width="12" height="12" fill="#161b22" rx="2" ry="2"><title>2026-05-11: 0 tokens</title></rect><rect x="740" y="90" width="12" height="12" fill="#161b22" rx="2" ry="2"><title>2026-05-12: 0 tokens</title></rect><rect x="740" y="105" width="12" height="12" fill="#161b22" rx="2" ry="2"><title>2026-05-13: 0 tokens</title></rect><rect x="740" y="120" width="12" height="12" fill="#161b22" rx="2" ry="2"><title>2026-05-14: 0 tokens</title></rect><rect x="740" y="135" width="12" height="12" fill="#161b22" rx="2" ry="2"><title>2026-05-15: 0 tokens</title></rect><rect x="740" y="150" width="12" height="12" fill="#161b22" rx="2" ry="2"><title>2026-05-16: 0 tokens</title></rect><rect x="755" y="60" width="12" height="12" fill="#161b22" rx="2" ry="2"><title>2026-05-17: 0 tokens</title></rect><rect x="755" y="75" width="12" height="12" fill="#161b22" rx="2" ry="2"><title>2026-05-18: 0 tokens</title></rect><rect x="755" y="90" width="12" height="12" fill="#161b22" rx="2" ry="2"><title>2026-05-19: 0 tokens</title></rect><rect x="755" y="105" width="12" height="12" fill="#161b22" rx="2" ry="2"><title>2026-05-20: 0 tokens</title></rect><rect x="755" y="120" width="12" height="12" fill="#161b22" rx="2" ry="2"><title>2026-05-21: 0 tokens</title></rect><rect x="755" y="135" width="12" height="12" fill="#161b22" rx="2" ry="2"><title>2026-05-22: 0 tokens</title></rect><rect x="755" y="150" width="12" height="12" fill="#161b22" rx="2" ry="2"><title>2026-05-23: 0 tokens</title></rect><rect x="770" y="60" width="12" height="12" fill="#123b76" rx="2" ry="2"><title>2026-05-24: 7,219,619 tokens</title></rect><rect x="770" y="75" width="12" height="12" fill="#161b22" rx="2" ry="2"><title>2026-05-25: 0 tokens</title></rect><rect x="770" y="90" width="12" height="12" fill="#0f3468" rx="2" ry="2"><title>2026-05-26: 1,739,260 tokens</title></rect><rect x="770" y="105" width="12" height="12" fill="#0f3265" rx="2" ry="2"><title>2026-05-27: 595,202 tokens</title></rect><rect x="770" y="120" width="12" height="12" fill="#0f3264" rx="2" ry="2"><title>2026-05-28: 72,044 tokens</title></rect><rect x="770" y="135" width="12" height="12" fill="#2570c0" rx="2" ry="2"><title>2026-05-29: 41,151,490 tokens</title></rect><rect x="770" y="150" width="12" height="12" fill="#0f3265" rx="2" ry="2"><title>2026-05-30: 726,083 tokens</title></rect><rect x="785" y="60" width="12" height="12" fill="#161b22" rx="2" ry="2"><title>2026-05-31: 0 tokens</title></rect><rect x="785" y="75" width="12" height="12" fill="#161b22" rx="2" ry="2"><title>2026-06-01: 0 tokens</title></rect><rect x="785" y="90" width="12" height="12" fill="#0f3265" rx="2" ry="2"><title>2026-06-02: 501,585 tokens</title></rect><rect x="785" y="105" width="12" height="12" fill="#161b22" rx="2" ry="2"><title>2026-06-03: 0 tokens</title></rect><rect x="785" y="120" width="12" height="12" fill="#161b22" rx="2" ry="2"><title>2026-06-04: 0 tokens</title></rect><rect x="785" y="135" width="12" height="12" fill="#0f3264" rx="2" ry="2"><title>2026-06-05: 320,067 tokens</title></rect><rect x="785" y="150" width="12" height="12" fill="#174b96" rx="2" ry="2"><title>2026-06-06: 19,228,264 tokens</title></rect><rect x="800" y="60" width="12" height="12" fill="#90caf9" rx="2" ry="2"><title>2026-06-07: 91,219,057 tokens</title></rect><rect x="800" y="75" width="12" height="12" fill="#133f7e" rx="2" ry="2"><title>2026-06-08: 10,088,693 tokens</title></rect><rect x="800" y="90" width="12" height="12" fill="#0f3469" rx="2" ry="2"><title>2026-06-09: 2,032,638 tokens</title></rect><rect x="800" y="105" width="12" height="12" fill="#0f3264" rx="2" ry="2"><title>2026-06-10: 102,220 tokens</title></rect><rect x="800" y="120" width="12" height="12" fill="#161b22" rx="2" ry="2"><title>2026-06-11: 0 tokens</title></rect><rect x="800" y="135" width="12" height="12" fill="#0f3264" rx="2" ry="2"><title>2026-06-12: 2,860 tokens</title></rect>
  
  <!-- Statistics -->
  <text x="20" y="185" fill="#8b949e" font-size="11">
    Total: <tspan fill="#e6edf3">174,999,082</tspan> tokens
  </text>
  <text x="220" y="185" fill="#8b949e" font-size="11">
    Peak: <tspan fill="#e6edf3">91,219,057</tspan> tokens
  </text>
  <text x="420" y="185" fill="#8b949e" font-size="11">
    Current streak: <tspan fill="#58a6ff">1</tspan> days
  </text>
  <text x="620" y="185" fill="#8b949e" font-size="11">
    Longest streak: <tspan fill="#58a6ff">6</tspan> days
  </text>
  
  <!-- Legend -->
  <text x="615" y="185" fill="#8b949e" font-size="10">
    Less
  </text>
  <rect x="645" y="175" width="10" height="10" fill="#161b22" rx="2" ry="2"/>
  <rect x="660" y="175" width="10" height="10" fill="#0f3264" rx="2" ry="2"/>
  <rect x="675" y="175" width="10" height="10" fill="#1976d2" rx="2" ry="2"/>
  <rect x="690" y="175" width="10" height="10" fill="#2878c8" rx="2" ry="2"/>
  <rect x="705" y="175" width="10" height="10" fill="#42a5f5" rx="2" ry="2"/>
  <rect x="720" y="175" width="10" height="10" fill="#90caf9" rx="2" ry="2"/>
  <text x="735" y="185" fill="#8b949e" font-size="10">
    More
  </text>
  
</svg>